<?xml version="1.0" encoding="UTF-8"?>
<svg width="16px" height="16px" viewBox="0 0 16 16" version="1.1" xmlns="http://www.w3.org/2000/svg" xmlns:xlink="http://www.w3.org/1999/xlink">
    <!-- Generator: Sketch 51.2 (57519) - http://www.bohemiancoding.com/sketch -->
    <title>schedule</title>
    <desc>Created with Sketch.</desc>
    <defs></defs>
    <g id="Page-1" stroke="none" stroke-width="1" fill="none" fill-rule="evenodd">
        <g id="Desktop-HD" transform="translate(-825.000000, -86.000000)" fill="#000000" fill-rule="nonzero">
            <path d="M838.912023,100.451613 C839.209656,100.451613 839.451613,100.209656 839.451613,99.9120235 L839.451613,89.4017595 C839.451613,89.1041266 839.209656,88.8621701 838.912023,88.8621701 L827.087977,88.8621701 C826.790344,88.8621701 826.548387,89.1041266 826.548387,89.4017595 L826.548387,99.9120235 C826.548387,100.209656 826.790344,100.451613 827.087977,100.451613 L838.912023,100.451613 Z M838.912023,102 L827.087977,102 C825.935193,102 825,101.064807 825,99.9120235 L825,89.4017595 C825,88.248976 825.935193,87.313783 827.087977,87.313783 L838.912023,87.313783 C840.064807,87.313783 841,88.248976 841,89.4017595 L841,99.9120235 C841,101.064807 840.064807,102 838.912023,102 Z M828.284457,86.7741935 C828.284457,86.3466183 828.631076,86 829.058651,86 C829.486226,86 829.832845,86.3466183 829.832845,86.7741935 L829.832845,90.058651 C829.832845,90.4862263 829.486226,90.8328446 829.058651,90.8328446 C828.631076,90.8328446 828.284457,90.4862263 828.284457,90.058651 L828.284457,86.7741935 Z M836.167155,86.7741935 C836.167155,86.3466183 836.513774,86 836.941349,86 C837.368924,86 837.715543,86.3466183 837.715543,86.7741935 L837.715543,90.058651 C837.715543,90.4862263 837.368924,90.8328446 836.941349,90.8328446 C836.513774,90.8328446 836.167155,90.4862263 836.167155,90.058651 L836.167155,86.7741935 Z M835.538944,95.1111111 L832.298333,98.3517222 L830,99 L830.648278,96.7016667 L833.888889,93.4610556 L835.538944,95.1111111 Z M836.658167,93.9918889 L836.089222,94.5612222 L834.439167,92.9111667 L835.0085,92.3418333 C835.228611,92.1213333 835.521833,92 835.833333,92 C836.144833,92 836.438056,92.1213333 836.658167,92.3418333 C836.878667,92.5619444 837,92.8547778 837,93.1666667 C837,93.4785556 836.878667,93.7713889 836.658167,93.9918889 Z" id="schedule"></path>
        </g>
    </g>
</svg>