<?xml version="1.0" encoding="UTF-8"?>
<svg width="259px" height="259px" viewBox="0 0 259 259" version="1.1" xmlns="http://www.w3.org/2000/svg" xmlns:xlink="http://www.w3.org/1999/xlink">
    <!-- Generator: Sketch 52 (66869) - http://www.bohemiancoding.com/sketch -->
    <title>98-Desktop-Work-Desk-Write</title>
    <desc>Created with Sketch.</desc>
    <g id="Build/EvalParam" stroke="none" stroke-width="1" fill="none" fill-rule="evenodd">
        <g id="98-Desktop-Work-Desk-Write">
            <circle id="Oval" fill="#E6E8EB" fill-rule="nonzero" cx="129.5" cy="129.5" r="129.5"></circle>
            <path d="M41.9026399,172.446288 L38.4963466,162.446823 C38.0682578,161.128918 38.7644386,159.712176 40.0806691,159.222697 L63.4652685,150.406969 L75.8071404,148.709241 C77.0608266,148.540556 78.2589807,149.273476 78.6589208,150.453696 L81.3839555,158.599677 C81.8190966,159.791776 81.2999865,161.117328 80.1640272,161.714775 L69.216359,167.586735 L45.087128,174.175167 C43.724939,174.538547 42.31531,173.773251 41.9026399,172.446288 Z" id="Shape" fill="#C1C7CD" fill-rule="nonzero" opacity="0.5"></path>
            <path d="M168.475211,174.009946 L164.796441,158.701582 C164.450393,157.290556 163.030346,156.419715 161.611359,156.748336 L97.6708314,172.0567 C96.9886494,172.218751 96.398991,172.644441 96.0316225,173.240086 C95.6642541,173.835731 95.5492811,174.552521 95.7120058,175.232709 L93.1639399,175.852031 C92.479502,176.010239 91.8871076,176.435172 91.5190506,177.031933 C91.1509937,177.628695 91.0379319,178.347578 91.2051143,179.02804 L94.2787187,191.732077 C94.4412329,192.412315 94.8681383,193.000294 95.4654853,193.366616 C96.0628324,193.732938 96.7816692,193.847584 97.463801,193.685322 L100.027792,193.066001 L106.175001,218.601114 C106.333661,219.283603 106.759808,219.874309 107.358274,220.241318 C107.956741,220.608326 108.677677,220.721066 109.360083,220.55436 L173.396163,205.245996 C174.810293,204.901329 175.678862,203.481502 175.339063,202.069987 L172.88655,191.843237 L175.434616,191.239795 C176.849673,190.894733 177.723001,189.478731 177.393441,188.063786 L174.319837,175.35975 C174.157626,174.680193 173.730004,174.093355 173.131953,173.729583 C172.533902,173.365811 171.814938,173.255224 171.134755,173.422384 L168.475211,174.009946 Z" id="Shape" fill="#C1C7CD" fill-rule="nonzero" opacity="0.5"></path>
            <path d="M74.8624151,118.769609 C75.175665,118.146018 75.2279575,117.42296 75.0077094,116.760596 C74.7874614,116.098233 74.3128529,115.551238 73.6890132,115.240776 L54.9462959,105.798764 C54.3242295,105.484746 53.6029387,105.432326 52.9421945,105.653113 C52.2814504,105.873901 51.7357932,106.349673 51.4260901,106.975041 L50.8393891,108.151319 L37.7892568,108.151319 C36.344276,108.151319 35.1728876,109.325578 35.1728876,110.7741 L35.1728876,131.883515 C35.1686654,132.58187 35.4424528,133.253076 35.9335755,133.748386 C36.4246983,134.243696 37.0925964,134.522205 37.7892568,134.522192 L53.3923311,134.522192 L61.9074235,138.814016 C62.5448261,139.1335 63.2842139,139.180252 63.9566103,138.943587 C64.6290068,138.706923 65.1769443,138.207069 65.4751997,137.55826 L74.8624151,118.769609 Z" id="Shape" fill="#C1C7CD" fill-rule="nonzero" opacity="0.5"></path>
            <rect id="Rectangle-path" stroke="#7C7D7F" stroke-width="1.60000002" fill="#DBE9F9" fill-rule="nonzero" stroke-linecap="round" stroke-linejoin="round" x="36.7716049" y="107.117284" width="23.9814815" height="23.9814815" rx="2.64000004"></rect>
            <path d="M49.0041976,107.117284 L67.705679,107.117284 C69.1637107,107.117284 70.345679,108.299252 70.345679,109.757284 L70.345679,128.458765 C70.345679,129.916797 69.1637107,131.098765 67.705679,131.098765 L49.0041976,131.098765 C47.5461658,131.098765 46.3641975,129.916797 46.3641975,128.458765 L46.3641975,109.757284 C46.3641975,108.299252 47.5461658,107.117284 49.0041976,107.117284 Z" id="Rectangle-path" stroke="#7C7D7F" stroke-width="1.60000002" fill="#FFFFFF" fill-rule="nonzero" stroke-linecap="round" stroke-linejoin="round" transform="translate(58.354938, 119.108025) rotate(-64.470000) translate(-58.354938, -119.108025) "></path>
            <path d="M201.145609,169.375914 L197.239721,180.111348 C196.023778,183.465894 196.710376,187.206956 199.040881,189.925313 C201.371386,192.64367 204.991738,193.926339 208.538185,193.29015 C212.084633,192.653962 215.018387,190.195569 216.234329,186.841024 L220.140217,176.121612 C221.811375,170.996484 219.069688,165.48463 213.943693,163.664197 C208.817698,161.843764 203.155114,164.370945 201.145609,169.375914 Z" id="Shape" fill="#C1C7CD" fill-rule="nonzero" opacity="0.5"></path>
            <path d="M159.876543,151.882716 L99.1234568,151.882716 C94.708588,151.882716 91.1296296,148.204222 91.1296296,143.66657 L91.1296296,124.703704 L167.87037,124.703704 L167.87037,143.732299 C167.83525,148.244261 164.266558,151.88286 159.876543,151.882716 Z" id="Shape" fill="#C1C7CD" fill-rule="nonzero" opacity="0.5"></path>
            <path d="M199.845679,86.7125026 C199.845679,84.4922123 180.962657,82.6159105 154.388337,81.8810257 L154.388337,81.537037 L104.611663,81.537037 L104.611663,81.8810257 C78.0373428,82.6159105 59.154321,84.4922123 59.154321,86.7125026 C59.154321,88.932793 77.4592911,90.7621872 103.423446,91.5127079 L103.005964,94.9682303 C102.655759,98.0489465 103.663357,101.1298 105.778609,103.445927 C107.893861,105.762053 110.918401,107.09625 114.101345,107.117284 L144.866541,107.117284 C148.049485,107.09625 151.074025,105.762053 153.189277,103.445927 C155.304529,101.1298 156.312127,98.0489465 155.961922,94.9682303 L155.54444,91.5127079 C181.508595,90.7621872 199.845679,88.8858855 199.845679,86.7125026 Z" id="Shape" fill="#C1C7CD" fill-rule="nonzero" opacity="0.5"></path>
            <path d="M161.013779,143.888889 L97.9701203,143.888889 C95.0751954,143.888889 92.7283951,141.512518 92.7283951,138.581116 L92.7283951,114.567467 C92.7283951,113.101766 93.9017952,111.91358 95.3492577,111.91358 L163.650526,111.91358 C165.097989,111.91358 166.271389,113.101766 166.271389,114.567467 L166.271389,138.51678 C166.284102,139.937096 165.735794,141.303669 164.74842,142.312546 C163.761046,143.321424 162.41648,143.888947 161.013779,143.888889 Z" id="Shape" fill="#FFFFFF" fill-rule="nonzero"></path>
            <path d="M161.013779,143.888889 L97.9701203,143.888889 C95.0751954,143.888889 92.7283951,141.512518 92.7283951,138.581116 L92.7283951,114.567467 C92.7283951,113.101766 93.9017952,111.91358 95.3492577,111.91358 L163.650526,111.91358 C165.097989,111.91358 166.271389,113.101766 166.271389,114.567467 L166.271389,138.51678 C166.284102,139.937096 165.735794,141.303669 164.74842,142.312546 C163.761046,143.321424 162.41648,143.888947 161.013779,143.888889 Z" id="Shape" stroke="#7C7D7F" stroke-width="1.60000002" stroke-linecap="round" stroke-linejoin="round"></path>
            <path d="M100.722222,135.895062 L105.518519,135.895062" id="Shape" stroke="#C1C7CD" stroke-width="1.60000002" stroke-linecap="round" stroke-linejoin="round"></path>
            <path d="M100.722222,127.901235 L105.518519,127.901235" id="Shape" stroke="#C1C7CD" stroke-width="1.60000002" stroke-linecap="round" stroke-linejoin="round"></path>
            <path d="M100.722222,119.907407 L105.518519,119.907407" id="Shape" stroke="#C1C7CD" stroke-width="1.60000002" stroke-linecap="round" stroke-linejoin="round"></path>
            <path d="M110.314815,127.901235 L115.111111,127.901235" id="Shape" stroke="#C1C7CD" stroke-width="1.60000002" stroke-linecap="round" stroke-linejoin="round"></path>
            <path d="M110.314815,119.907407 L115.111111,119.907407" id="Shape" stroke="#C1C7CD" stroke-width="1.60000002" stroke-linecap="round" stroke-linejoin="round"></path>
            <path d="M121.506173,127.901235 L126.302469,127.901235" id="Shape" stroke="#C1C7CD" stroke-width="1.60000002" stroke-linecap="round" stroke-linejoin="round"></path>
            <path d="M121.506173,119.907407 L126.302469,119.907407" id="Shape" stroke="#C1C7CD" stroke-width="1.60000002" stroke-linecap="round" stroke-linejoin="round"></path>
            <path d="M132.697531,127.901235 L137.493827,127.901235" id="Shape" stroke="#C1C7CD" stroke-width="1.60000002" stroke-linecap="round" stroke-linejoin="round"></path>
            <path d="M132.697531,119.907407 L137.493827,119.907407" id="Shape" stroke="#C1C7CD" stroke-width="1.60000002" stroke-linecap="round" stroke-linejoin="round"></path>
            <path d="M142.290123,127.901235 L147.08642,127.901235" id="Shape" stroke="#C1C7CD" stroke-width="1.60000002" stroke-linecap="round" stroke-linejoin="round"></path>
            <path d="M142.290123,119.907407 L147.08642,119.907407" id="Shape" stroke="#C1C7CD" stroke-width="1.60000002" stroke-linecap="round" stroke-linejoin="round"></path>
            <path d="M153.481481,135.895062 L158.277778,135.895062" id="Shape" stroke="#C1C7CD" stroke-width="1.60000002" stroke-linecap="round" stroke-linejoin="round"></path>
            <path d="M153.481481,127.901235 L158.277778,127.901235" id="Shape" stroke="#C1C7CD" stroke-width="1.60000002" stroke-linecap="round" stroke-linejoin="round"></path>
            <path d="M153.481481,119.907407 L158.277778,119.907407" id="Shape" stroke="#C1C7CD" stroke-width="1.60000002" stroke-linecap="round" stroke-linejoin="round"></path>
            <path d="M110.314815,135.895062 L147.08642,135.895062" id="Shape" stroke="#C1C7CD" stroke-width="1.60000002" stroke-linecap="round" stroke-linejoin="round"></path>
            <path d="M227.245126,35.1728397 L31.7548742,35.1728397 C28.5577459,35.1721297 25.5809038,36.7387248 23.8585825,39.3283478 C22.1362612,41.9179708 21.9062067,45.1731554 23.2483459,47.962963 L235.751654,47.962963 C237.093793,45.1731554 236.863739,41.9179708 235.141418,39.3283478 C233.419096,36.7387248 230.442254,35.1721297 227.245126,35.1728397 Z" id="Shape" fill="#FFFFFF" fill-rule="nonzero"></path>
            <path d="M227.245126,35.1728397 L31.7548742,35.1728397 C28.5577459,35.1721297 25.5809038,36.7387248 23.8585825,39.3283478 C22.1362612,41.9179708 21.9062067,45.1731554 23.2483459,47.962963 L235.751654,47.962963 C237.093793,45.1731554 236.863739,41.9179708 235.141418,39.3283478 C233.419096,36.7387248 230.442254,35.1721297 227.245126,35.1728397 Z" id="Shape" stroke="#7C7D7F" stroke-width="1.60000002" stroke-linecap="round" stroke-linejoin="round"></path>
            <path d="M140.29075,55.9567901 L117.110485,55.9567901 C111.823294,55.959926 107.373287,59.9546704 106.750326,65.2570429 L103.990771,88.9695025 C103.643947,91.9557952 104.578186,94.9493314 106.55786,97.1951026 C108.537534,99.4408738 111.37366,100.724495 114.35093,100.722219 L143.050305,100.722219 C146.027575,100.724495 148.863701,99.4408738 150.843375,97.1951026 C152.823049,94.9493314 153.757287,91.9557952 153.410464,88.9695025 L150.650909,65.2570429 C150.027947,59.9546704 145.577941,55.959926 140.29075,55.9567901 Z" id="Shape" fill="#FFFFFF" fill-rule="nonzero"></path>
            <path d="M140.29075,55.9567901 L117.110485,55.9567901 C111.823294,55.959926 107.373287,59.9546704 106.750326,65.2570429 L103.990771,88.9695025 C103.643947,91.9557952 104.578186,94.9493314 106.55786,97.1951026 C108.537534,99.4408738 111.37366,100.724495 114.35093,100.722219 L143.050305,100.722219 C146.027575,100.724495 148.863701,99.4408738 150.843375,97.1951026 C152.823049,94.9493314 153.757287,91.9557952 153.410464,88.9695025 L150.650909,65.2570429 C150.027947,59.9546704 145.577941,55.959926 140.29075,55.9567901 Z" id="Shape" stroke="#7C7D7F" stroke-width="1.60000002" stroke-linecap="round" stroke-linejoin="round"></path>
            <path d="M231.334936,39.9691358 L27.6555429,39.9691358 C25.7555706,39.9783982 24.0059702,41.0112079 23.0700835,42.6759866 C22.1341967,44.3407652 22.1553111,46.3826296 23.1254213,48.0274293 L39.8532557,76.0702907 C41.3024409,78.4669996 43.8855488,79.9321893 46.6724495,79.9382716 L212.350044,79.9382716 C215.136945,79.9321893 217.720053,78.4669996 219.169238,76.0702907 L235.865057,48.0435459 C236.843475,46.3978423 236.869091,44.3499897 235.932149,42.6799996 C234.995206,41.0100094 233.239947,39.9749761 231.334936,39.9691358 Z" id="Shape" fill="#DBE9F9" fill-rule="nonzero"></path>
            <path d="M46.6415126,79.9382716 L89.7836346,79.9382716 L129.5,39.9691358 L27.6557773,39.9691358 C25.7557205,39.9783982 24.0060423,41.0112079 23.070114,42.6759866 C22.1341857,44.3407652 22.155301,46.3826296 23.1254543,48.0274293 L39.8540322,76.0702907 C41.2973228,78.4572502 43.8659049,79.9210078 46.6415126,79.9382716 Z" id="Shape" fill="#FFFFFF" fill-rule="nonzero"></path>
            <path d="M231.334936,39.9691358 L27.6555429,39.9691358 C25.7555706,39.9783982 24.0059702,41.0112079 23.0700835,42.6759866 C22.1341967,44.3407652 22.1553111,46.3826296 23.1254213,48.0274293 L39.8532557,76.0702907 C41.3024409,78.4669996 43.8855488,79.9321893 46.6724495,79.9382716 L212.350044,79.9382716 C215.136945,79.9321893 217.720053,78.4669996 219.169238,76.0702907 L235.865057,48.0435459 C236.843475,46.3978423 236.869091,44.3499897 235.932149,42.6799996 C234.995206,41.0100094 233.239947,39.9749761 231.334936,39.9691358 Z" id="Shape" stroke="#7C7D7F" stroke-width="1.60000002" stroke-linecap="round" stroke-linejoin="round"></path>
            <path d="M36.7716049,71.9444444 L39.2475384,76.0702907 C40.6936697,78.4669996 43.2713342,79.9321893 46.0523619,79.9382716 L211.38082,79.9382716 C214.161848,79.9321893 216.739512,78.4669996 218.185644,76.0702907 L220.62963,71.9444444 L36.7716049,71.9444444 Z" id="Shape" fill="#FFFFFF" fill-rule="nonzero"></path>
            <path d="M36.7716049,71.9444444 L39.2475384,76.0702907 C40.6936697,78.4669996 43.2713342,79.9321893 46.0523619,79.9382716 L211.38082,79.9382716 C214.161848,79.9321893 216.739512,78.4669996 218.185644,76.0702907 L220.62963,71.9444444 L36.7716049,71.9444444 Z" id="Shape" stroke="#7C7D7F" stroke-width="1.60000002" stroke-linecap="round" stroke-linejoin="round"></path>
            <path d="M211.223932,162.032246 C208.884585,161.187453 206.304122,161.307633 204.053876,162.366178 C201.80363,163.424723 200.069253,165.3343 199.234749,167.672114 L195.605591,177.723684 C193.851803,182.587791 196.383345,187.94901 201.259949,189.698304 C206.136552,191.447597 211.511545,188.922542 213.265333,184.058436 L216.878289,173.990706 C217.720736,171.657136 217.59809,169.085177 216.537392,166.841896 C215.476694,164.598615 213.565047,162.868226 211.223932,162.032246 Z" id="Shape" fill="#FFFFFF" fill-rule="nonzero"></path>
            <path d="M211.223932,162.032246 C208.884585,161.187453 206.304122,161.307633 204.053876,162.366178 C201.80363,163.424723 200.069253,165.3343 199.234749,167.672114 L195.605591,177.723684 C193.851803,182.587791 196.383345,187.94901 201.259949,189.698304 C206.136552,191.447597 211.511545,188.922542 213.265333,184.058436 L216.878289,173.990706 C217.720736,171.657136 217.59809,169.085177 216.537392,166.841896 C215.476694,164.598615 213.565047,162.868226 211.223932,162.032246 Z" id="Shape" stroke="#7C7D7F" stroke-width="1.60000002" fill="#FFFFFF" stroke-linecap="round" stroke-linejoin="round"></path>
            <path d="M208.429419,167.90079 C207.745246,167.904459 207.137494,168.350675 206.912224,169.014727 C206.659948,169.846247 207.083839,170.735459 207.877712,171.040068 C208.059842,171.077179 208.247289,171.077179 208.429419,171.040068 C209.118952,171.03892 209.733705,170.593349 209.966318,169.926131 C210.216518,169.088937 209.782828,168.197363 208.981127,167.90079 C208.799341,167.860231 208.611205,167.860231 208.429419,167.90079 Z" id="Shape" fill="#C1C7CD" fill-rule="nonzero"></path>
            <path d="M172.606724,227.05102 L174.073075,230.734595 C174.614845,232.092308 173.973192,233.63934 172.638259,234.193952 L141.860669,246.830215 C141.538678,246.961916 141.178366,246.958286 140.859011,246.820122 C140.539656,246.681958 140.287423,246.420581 140.15781,246.0935 L140.078974,245.885298 L138.234211,246.622013 C137.966741,248.496987 136.734499,250.084445 135.001933,250.786054 C133.0468,251.5548 129.057696,250.129416 127.11833,249.280593 C126.787072,249.147017 126.524791,248.880469 126.393455,248.543926 C126.262119,248.207383 126.273378,247.830697 126.424572,247.502867 C127.354838,245.500925 129.309971,241.689226 131.265105,240.92048 C132.988716,240.234602 134.941542,240.533666 136.389448,241.705241 L138.202677,240.968526 L137.792729,239.959547 C137.66307,239.632485 137.666644,239.266498 137.802665,238.942113 C137.938687,238.617729 138.196012,238.361523 138.518021,238.229868 L169.295611,225.593606 C170.605559,225.096586 172.067989,225.740287 172.606724,227.05102 Z" id="Shape" fill="#C1C7CD" fill-rule="nonzero" opacity="0.5"></path>
            <path d="M101.763457,167.87037 L128.458765,167.87037 C129.916797,167.87037 131.098765,169.052339 131.098765,170.51037 L131.098765,213.193333 C131.098765,214.651365 129.916797,215.833333 128.458765,215.833333 L101.763457,215.833333 C100.305425,215.833333 99.1234568,214.651365 99.1234568,213.193333 L99.1234568,170.51037 C99.1234568,169.052339 100.305425,167.87037 101.763457,167.87037 Z" id="Rectangle-path" stroke="#7C7D7F" stroke-width="1.60000002" fill="#FFFFFF" fill-rule="nonzero" stroke-linecap="round" stroke-linejoin="round" transform="translate(115.111111, 191.851852) rotate(-13.480000) translate(-115.111111, -191.851852) "></path>
            <path d="M138.535062,158.277778 L165.23037,158.277778 C166.688402,158.277778 167.87037,159.459746 167.87037,160.917778 L167.87037,203.600741 C167.87037,205.058772 166.688402,206.240741 165.23037,206.240741 L138.535062,206.240741 C137.07703,206.240741 135.895062,205.058772 135.895062,203.600741 L135.895062,160.917778 C135.895062,159.459746 137.07703,158.277778 138.535062,158.277778 Z" id="Rectangle-path" stroke="#7C7D7F" stroke-width="1.60000002" fill="#FFFFFF" fill-rule="nonzero" stroke-linecap="round" stroke-linejoin="round" transform="translate(151.882716, 182.259259) rotate(-13.480000) translate(-151.882716, -182.259259) "></path>
            <path d="M123.104938,171.067901 L132.697531,167.87037" id="Shape" stroke="#7C7D7F" stroke-width="1.60000002" stroke-linecap="round" stroke-linejoin="round"></path>
            <path d="M124.703704,175.864198 L134.296296,172.666667" id="Shape" stroke="#7C7D7F" stroke-width="1.60000002" stroke-linecap="round" stroke-linejoin="round"></path>
            <path d="M126.302469,180.660494 L135.895062,177.462963" id="Shape" stroke="#7C7D7F" stroke-width="1.60000002" stroke-linecap="round" stroke-linejoin="round"></path>
            <path d="M127.901235,185.45679 L137.493827,182.259259" id="Shape" stroke="#7C7D7F" stroke-width="1.60000002" stroke-linecap="round" stroke-linejoin="round"></path>
            <path d="M129.5,191.851852 L139.092593,188.654321" id="Shape" stroke="#7C7D7F" stroke-width="1.60000002" stroke-linecap="round" stroke-linejoin="round"></path>
            <path d="M129.5,196.648148 L139.092593,193.450617" id="Shape" stroke="#7C7D7F" stroke-width="1.60000002" stroke-linecap="round" stroke-linejoin="round"></path>
            <path d="M131.098765,201.444444 L140.691358,198.246914" id="Shape" stroke="#7C7D7F" stroke-width="1.60000002" stroke-linecap="round" stroke-linejoin="round"></path>
            <path d="M132.697531,206.240741 L142.290123,203.04321" id="Shape" stroke="#7C7D7F" stroke-width="1.60000002" stroke-linecap="round" stroke-linejoin="round"></path>
            <path d="M96.5246914,182.541394 L92.2218966,183.858025 L91.1929674,178.352116 C91.0526878,177.619417 91.1475558,176.845349 91.4563856,176.202776 C91.7652153,175.560203 92.2622824,175.10265 92.8365816,174.932297 L94.9746162,174.265432 L96.5246914,182.541394 Z" id="Shape" stroke="#7C7D7F" stroke-width="1.60000002" fill="#FFFFFF" fill-rule="nonzero" stroke-linecap="round" stroke-linejoin="round"></path>
            <path d="M98.5246914,190.588025 L96.1793498,191.181017 C95.5551372,191.340636 94.8956802,191.232689 94.3482491,190.881284 C93.800818,190.529879 93.4110117,189.964285 93.2658821,189.310813 L92.1296296,184.430037 L96.8203127,183.259259 L98.5246914,190.588025 Z" id="Shape" stroke="#7C7D7F" stroke-width="1.60000002" fill="#FFFFFF" fill-rule="nonzero" stroke-linecap="round" stroke-linejoin="round"></path>
            <path d="M171.666667,179.489716 L167.703704,180.660494 L166.271605,173.331728 L168.259259,172.738736 C168.788273,172.579118 169.347157,172.687064 169.811099,173.038469 C170.275042,173.389875 170.605399,173.955468 170.728395,174.60894 L171.666667,179.489716 Z" id="Shape" stroke="#7C7D7F" stroke-width="1.60000002" fill="#FFFFFF" fill-rule="nonzero" stroke-linecap="round" stroke-linejoin="round"></path>
            <path d="M174.185926,185.159105 C174.357464,185.890991 174.248899,186.666607 173.884703,187.311109 C173.520508,187.955611 172.931336,188.414752 172.250002,188.585031 L169.695217,189.253086 L167.87037,180.979475 L172.964072,179.660494 L174.185926,185.159105 Z" id="Shape" stroke="#7C7D7F" stroke-width="1.60000002" fill="#FFFFFF" fill-rule="nonzero" stroke-linecap="round" stroke-linejoin="round"></path>
            <g id="Group-3" transform="translate(100.000000, 172.000000)" stroke="#C1C7CD" stroke-linecap="round" stroke-linejoin="round" stroke-width="1.60000002">
                <path d="M11.8791606,3.91992582 C12.0437021,4.56113637 11.6029592,5.2020262 10.8849048,5.36568587 L3.01235499,7.02830991 C2.28796526,7.18254987 1.55931056,6.78829276 1.38242748,6.14639629 L0.76305503,3.81872262 C0.674956081,3.50986242 0.730713289,3.1825483 0.91775764,2.91056471 C1.10480199,2.63858113 1.40738991,2.44482103 1.75731081,2.37296258 L9.62986066,0.695880928 C9.97516834,0.627879934 10.3367216,0.679605892 10.6404157,0.840456933 C10.9428872,1.00637074 11.1595401,1.27125788 11.2434889,1.57779455 L11.8791606,3.91992582 Z" id="Shape" fill="#E6E8EB"></path>
                <path d="M10.9272662,27.0138077 L23.6349204,27.0138077 C25.0929522,27.0138077 26.2749205,28.1957759 26.2749205,29.6538077 L26.2749205,35.5651656 C26.2749205,37.0231974 25.0929522,38.2051657 23.6349204,38.2051657 L10.9272662,38.2051657 C9.46923444,38.2051657 8.28726616,37.0231974 8.28726616,35.5651656 L8.28726616,29.6538077 C8.28726616,28.1957759 9.46923444,27.0138077 10.9272662,27.0138077 Z" id="Rectangle-path" fill="#E6E8EB" transform="translate(17.281093, 32.609487) rotate(-13.480000) translate(-17.281093, -32.609487) "></path>
                <path d="M3.71604938,12.8580247 L16.5061728,9.66049383" id="Shape"></path>
                <path d="M4.91975309,17.8518519 L22.5061728,13.0555556" id="Shape"></path>
                <path d="M5.51851852,23.6481481 L23.1049383,18.8518519" id="Shape"></path>
            </g>
            <g id="Group-2" transform="translate(145.000000, 163.000000)" stroke="#C1C7CD" stroke-linecap="round" stroke-linejoin="round" stroke-width="1.60000002">
                <path d="M3.84721852,6.99195827 C4.57697966,9.99278489 7.59984868,11.8344998 10.6005217,11.1064797 C13.6011946,10.3784596 15.444437,7.35613377 14.7184554,4.35439016 C13.9924738,1.35264654 10.9719265,-0.492875241 7.9703391,0.231363981 C6.52409939,0.575669507 5.27518629,1.48333111 4.5010033,2.75274271 C3.72682031,4.02215431 3.4914668,5.54821351 3.84721852,6.99195827 Z" id="Shape" fill="#E6E8EB"></path>
                <path d="M2.24845309,34.1709706 C2.97821423,37.1717972 6.00108325,39.0135122 9.00175623,38.285492 C12.0024292,37.5574719 13.8456716,34.5351461 13.11969,31.5334025 C12.3937084,28.5316589 9.37316108,26.6861371 6.37157367,27.4103763 C4.92533395,27.7546819 3.67642086,28.6623435 2.90223787,29.9317551 C2.12805488,31.2011667 1.89270137,32.7272259 2.24845309,34.1709706 Z" id="Shape" fill="#E6E8EB"></path>
                <polyline id="Shape" points="2.97923681 6.4691358 0.487654321 7.06520382 5.28395062 27.2530864"></polyline>
                <path d="M3.68518519,20.4903086 L8.48148148,19.2592593" id="Shape"></path>
                <path d="M16.4401555,18.0169871 C16.6024015,18.7211496 16.1876801,19.4294579 15.5124655,19.6014019 L10.6154787,20.8214012 C9.93958705,20.9904335 9.259716,20.5583654 9.0946753,19.8549082 L8.51677003,17.3040005 C8.43781669,16.9634516 8.49255771,16.6041582 8.66885036,16.3058192 C8.84458296,16.0129644 9.12270608,15.8027491 9.44446008,15.7195858 L14.3414469,14.4995864 C15.0173385,14.3305542 15.6972096,14.7626223 15.8622503,15.4660794 L16.4401555,18.0169871 Z" id="Shape" fill="#E6E8EB"></path>
            </g>
            <path d="M68.7469136,165.328933 L64.268583,150.283951 L41.6690074,158.26961 C40.3899784,158.762344 39.6969342,160.146463 40.0696036,161.463874 L42.372745,169.162049 C42.7688832,170.534175 44.1873867,171.341573 45.5715526,170.982779 L68.7469136,165.328933 Z" id="Shape" fill="#FFFFFF" fill-rule="nonzero"></path>
            <path d="M78.8369872,156.358557 L77.0898101,150.56712 C76.7200264,149.369367 75.5462728,148.588656 74.2749136,148.69482 L62.9506173,149.726171 L67.4803358,164.67284 L77.5266044,159.357411 C78.632247,158.788187 79.1792332,157.536391 78.8369872,156.358557 Z" id="Shape" fill="#C1C7CD" fill-rule="nonzero"></path>
            <path d="M68.7469136,165.328933 L64.268583,150.283951 L41.6690074,158.26961 C40.3899784,158.762344 39.6969342,160.146463 40.0696036,161.463874 L42.372745,169.162049 C42.7688832,170.534175 44.1873867,171.341573 45.5715526,170.982779 L68.7469136,165.328933 Z" id="Shape" stroke="#7C7D7F" stroke-width="1.60000002" stroke-linecap="round" stroke-linejoin="round"></path>
            <path d="M79.8369872,156.358557 L78.0898101,150.56712 C77.7200264,149.369367 76.5462728,148.588656 75.2749136,148.69482 L63.9506173,149.726171 L68.4803358,164.67284 L78.5266044,159.357411 C79.632247,158.788187 80.1792332,157.536391 79.8369872,156.358557 Z" id="Shape" stroke="#7C7D7F" stroke-width="1.60000002" stroke-linecap="round" stroke-linejoin="round"></path>
            <path d="M47.3641975,163.67284 L56.9567901,160.475309" id="Shape" stroke="#C1C7CD" stroke-width="1.60000002" stroke-linecap="round" stroke-linejoin="round"></path>
            <path d="M138.535062,230.222222 L170.026667,230.222222 C171.484698,230.222222 172.666667,231.404191 172.666667,232.862222 L172.666667,235.576049 C172.666667,237.034081 171.484698,238.216049 170.026667,238.216049 L138.535062,238.216049 C137.07703,238.216049 135.895062,237.034081 135.895062,235.576049 L135.895062,232.862222 C135.895062,231.404191 137.07703,230.222222 138.535062,230.222222 Z" id="Rectangle-path" fill="#FFFFFF" fill-rule="nonzero" transform="translate(154.280864, 234.219136) rotate(-21.270000) translate(-154.280864, -234.219136) "></path>
            <path d="M156.679012,228.623457 L159.876543,236.617284" id="Shape" stroke="#C1C7CD" stroke-width="1.60000002" stroke-linecap="round" stroke-linejoin="round"></path>
            <path d="M166.271605,224.491276 C165.786534,222.992506 164.823305,221.786722 163.594677,221.140257 C162.366049,220.493792 160.973117,220.45984 159.723551,221.0459 L150.283951,225.425926" id="Shape" stroke="#7C7D7F" stroke-width="1.60000002" stroke-linecap="round" stroke-linejoin="round"></path>
            <path d="M133.514425,246.030144 C135.435419,245.220877 136.387272,242.877354 135.64045,240.79574 C134.893627,238.714125 132.730935,237.682683 130.809942,238.49195 C128.886753,239.30601 126.302469,244.711367 126.302469,244.711367 C126.302469,244.711367 131.591237,246.827923 133.514425,246.030144 Z" id="Shape" fill="#E6E8EB" fill-rule="nonzero"></path>
            <path d="M133.514425,246.030144 C135.435419,245.220877 136.387272,242.877354 135.64045,240.79574 C134.893627,238.714125 132.730935,237.682683 130.809942,238.49195 C128.886753,239.30601 126.302469,244.711367 126.302469,244.711367 C126.302469,244.711367 131.591237,246.827923 133.514425,246.030144 Z" id="Shape" stroke="#7C7D7F" stroke-width="1.60000002" stroke-linecap="round" stroke-linejoin="round"></path>
            <path d="M138.535062,230.222222 L170.026667,230.222222 C171.484698,230.222222 172.666667,231.404191 172.666667,232.862222 L172.666667,235.576049 C172.666667,237.034081 171.484698,238.216049 170.026667,238.216049 L138.535062,238.216049 C137.07703,238.216049 135.895062,237.034081 135.895062,235.576049 L135.895062,232.862222 C135.895062,231.404191 137.07703,230.222222 138.535062,230.222222 Z" id="Rectangle-path" stroke="#7C7D7F" stroke-width="1.60000002" stroke-linecap="round" stroke-linejoin="round" transform="translate(154.280864, 234.219136) rotate(-21.270000) translate(-154.280864, -234.219136) "></path>
            <path d="M189.583556,113.512346 L227.694222,113.512346 C229.090398,113.512346 230.222222,114.64417 230.222222,116.040346 L230.222222,136.564593 C230.222222,137.960768 229.090398,139.092593 227.694222,139.092593 L189.583556,139.092593 C188.18738,139.092593 187.055556,137.960768 187.055556,136.564593 L187.055556,116.040346 C187.055556,114.64417 188.18738,113.512346 189.583556,113.512346 Z" id="Rectangle-path" fill="#C1C7CD" fill-rule="nonzero" opacity="0.5" transform="translate(208.638889, 126.302469) rotate(-65.260000) translate(-208.638889, -126.302469) "></path>
            <path d="M196.649383,103.919753 L215.832099,103.919753 C216.715754,103.919753 217.432099,104.636097 217.432099,105.519753 L217.432099,140.690123 C217.432099,141.573779 216.715754,142.290123 215.832099,142.290123 L196.649383,142.290123 C195.765727,142.290123 195.049383,141.573779 195.049383,140.690123 L195.049383,105.519753 C195.049383,104.636097 195.765727,103.919753 196.649383,103.919753 Z" id="Rectangle-path" stroke="#7C7D7F" stroke-width="1.60000002" fill="#C1C7CD" fill-rule="nonzero" stroke-linecap="round" stroke-linejoin="round" transform="translate(206.240741, 123.104938) rotate(24.500000) translate(-206.240741, -123.104938) "></path>
            <polygon id="Shape" fill="#DBE9F9" fill-rule="nonzero" points="201.643166 107.117284 220.228395 116.302522 210.437081 139.092593 191.851852 129.907355"></polygon>
            <polygon id="Shape" fill="#FFFFFF" fill-rule="nonzero" points="193.450617 126.302469 220.62963 115.956874 202.023437 107.117284"></polygon>
            <path d="M201,107 L221,116" id="Path-2" stroke="#7C7D7F" stroke-width="1.6"></path>
            <path d="M191,130 L211,139" id="Path-3" stroke="#7C7D7F" stroke-width="1.6"></path>
        </g>
    </g>
</svg>