<?xml version="1.0" encoding="UTF-8"?>
<svg width="16px" height="16px" viewBox="0 0 16 16" version="1.1" xmlns="http://www.w3.org/2000/svg" xmlns:xlink="http://www.w3.org/1999/xlink">
    <!-- Generator: Sketch 50.2 (55047) - http://www.bohemiancoding.com/sketch -->
    <title>add</title>
    <desc>Created with Sketch.</desc>
    <defs></defs>
    <g id="Page-1" stroke="none" stroke-width="1" fill="none" fill-rule="evenodd">
        <g id="Desktop-HD" transform="translate(-557.000000, -30.000000)" fill="#000000" fill-rule="nonzero">
            <path d="M564.110844,37.1111111 L564.110844,30.8888889 C564.110844,30.3979691 564.508814,30 564.999733,30 C565.490653,30 565.888622,30.3979691 565.888622,30.8888889 L565.888622,37.1111111 L572.111111,37.1111111 C572.602031,37.1111111 573,37.5090802 573,38 C573,38.4909198 572.602031,38.8888889 572.111111,38.8888889 L565.888622,38.8888889 L565.888622,45.1111111 C565.888622,45.6020309 565.490653,46 564.999733,46 C564.508814,46 564.110844,45.6020309 564.110844,45.1111111 L564.110844,38.8888889 L557.888889,38.8888889 C557.397969,38.8888889 557,38.4909198 557,38 C557,37.5090802 557.397969,37.1111111 557.888889,37.1111111 L564.110844,37.1111111 Z" id="add"></path>
        </g>
    </g>
</svg>