<?xml version="1.0" encoding="UTF-8"?>
<svg width="16px" height="16px" viewBox="0 0 16 16" version="1.1" xmlns="http://www.w3.org/2000/svg" xmlns:xlink="http://www.w3.org/1999/xlink">
    <!-- Generator: Sketch 50.2 (55047) - http://www.bohemiancoding.com/sketch -->
    <title>cancel</title>
    <desc>Created with Sketch.</desc>
    <defs></defs>
    <g id="Page-1" stroke="none" stroke-width="1" fill="none" fill-rule="evenodd">
        <g id="Desktop-HD" transform="translate(-521.000000, -30.000000)" fill="#000000" fill-rule="nonzero">
            <path d="M527.383756,38 L521.334735,31.9509792 C520.888422,31.5046657 520.888422,30.7810486 521.334735,30.3347351 C521.781049,29.8884216 522.504666,29.8884216 522.950979,30.3347351 L529,36.3837559 L535.049021,30.3347351 C535.495334,29.8884216 536.218951,29.8884216 536.665265,30.3347351 C537.111578,30.7810486 537.111578,31.5046657 536.665265,31.9509792 L530.616244,38 L536.665265,44.0490208 C537.111578,44.4953343 537.111578,45.2189514 536.665265,45.6652649 C536.218951,46.1115784 535.495334,46.1115784 535.049021,45.6652649 L529,39.6162441 L522.950979,45.6652649 C522.504666,46.1115784 521.781049,46.1115784 521.334735,45.6652649 C520.888422,45.2189514 520.888422,44.4953343 521.334735,44.0490208 L527.383756,38 Z" id="cancel"></path>
        </g>
    </g>
</svg>