<?xml version="1.0" encoding="UTF-8"?>
<svg width="8px" height="8px" viewBox="0 0 8 8" version="1.1" xmlns="http://www.w3.org/2000/svg" xmlns:xlink="http://www.w3.org/1999/xlink">
    <!-- Generator: Sketch 51.2 (57519) - http://www.bohemiancoding.com/sketch -->
    <title>cancel 888</title>
    <desc>Created with Sketch.</desc>
    <defs></defs>
    <g id="Page-1" stroke="none" stroke-width="1" fill="none" fill-rule="evenodd">
        <g id="Desktop-HD" transform="translate(-674.000000, -51.000000)" fill="#888888" fill-rule="nonzero">
            <path d="M677.191878,55 L674.167368,51.9754896 C673.944211,51.7523329 673.944211,51.3905243 674.167368,51.1673676 C674.390524,50.9442108 674.752333,50.9442108 674.97549,51.1673676 L678,54.191878 L681.02451,51.1673676 C681.247667,50.9442108 681.609476,50.9442108 681.832632,51.1673676 C682.055789,51.3905243 682.055789,51.7523329 681.832632,51.9754896 L678.808122,55 L681.832632,58.0245104 C682.055789,58.2476671 682.055789,58.6094757 681.832632,58.8326324 C681.609476,59.0557892 681.247667,59.0557892 681.02451,58.8326324 L678,55.808122 L674.97549,58.8326324 C674.752333,59.0557892 674.390524,59.0557892 674.167368,58.8326324 C673.944211,58.6094757 673.944211,58.2476671 674.167368,58.0245104 L677.191878,55 Z" id="cancel-888"></path>
        </g>
    </g>
</svg>