<?xml version="1.0" encoding="UTF-8"?>
<svg width="8px" height="8px" viewBox="0 0 8 8" version="1.1" xmlns="http://www.w3.org/2000/svg" xmlns:xlink="http://www.w3.org/1999/xlink">
    <!-- Generator: Sketch 51.2 (57519) - http://www.bohemiancoding.com/sketch -->
    <title>add bbb</title>
    <desc>Created with Sketch.</desc>
    <defs></defs>
    <g id="Page-1" stroke="none" stroke-width="1" fill="none" fill-rule="evenodd">
        <g id="Desktop-HD" transform="translate(-659.000000, -30.000000)" fill="#BBBBBB" fill-rule="nonzero">
            <path d="M663.5,34.5 L663.5,37.5555556 C663.5,37.8010154 663.276142,38 663,38 C662.723858,38 662.5,37.8010154 662.5,37.5555556 L662.5,34.5 L659.444444,34.5 C659.198985,34.5 659,34.2761424 659,34 C659,33.7238576 659.198985,33.5 659.444444,33.5 L662.5,33.5 L662.5,30.4444444 C662.5,30.1989846 662.723858,30 663,30 C663.276142,30 663.5,30.1989846 663.5,30.4444444 L663.5,33.5 L666.555556,33.5 C666.801015,33.5 667,33.7238576 667,34 C667,34.2761424 666.801015,34.5 666.555556,34.5 L663.5,34.5 Z" id="add-bbb"></path>
        </g>
    </g>
</svg>